PathFileType	4	(X/Y/Z)	C:/Users/beibeiliu/ov580/test_trc\sequence.37_training_dense_left.trc
DataRate	CameraRate	NumFrames	NumMarkers	Units	OrigDataRate	OrigDataStartFrame	OrigNumFrames
120	120	14	19	mm	120	26	152
Frame#	Time	ThumbCMC			ThumbMCP			ThumbIP			ThumbTip			IndexMCP			IndexPIP			IndexTip			MiddleMCP			MiddlePIP			MiddleTip			RingMCP			RingPIP			RingTip			PinkyMCP			PinkyPIP			PinkyTip			BackHand1			BackHand2			BackHand3	
		X0	Y0	Z0	X1	Y1	Z1	X2	Y2	Z2	X3	Y3	Z3	X4	Y4	Z4	X5	Y5	Z5	X6	Y6	Z6	X7	Y7	Z7	X8	Y8	Z8	X9	Y9	Z9	X10	Y10	Z10	X11	Y11	Z11	X12	Y12	Z12	X13	Y13	Z13	X14	Y14	Z14	X15	Y15	Z15	X16	Y16	Z16	X17	Y17	Z17	X18	Y18	Z18	
25	0.208333	-134.274	24.355	36.3196	-116.845	7.32923	13.3096	-110.749	5.35355	-12.569	-114.436	3.93572	-35.4247	-105.494	59.9316	-17.4286	-94.9331	51.8998	-41.8633	-97.5016	30.8657	-58.4006	-123.239	70.8835	-27.8137	-116.691	59.6803	-55.4409	-128.158	29.6719	-59.3204	-146.948	74.9993	-27.6437	-139.626	65.3287	-55.0001	-142.55	37.9614	-60.8189	-168.628	71.549	-22.9238	-169.383	76.5745	-43.6102	-165.589	72.2939	-64.0076	-163.681	65.4813	16.7033	-167.486	60.7729	37.7223	-143.275	56.1687	33.5974	
26	0.216667	-127.492	23.7627	38.7163	-112.741	9.80307	14.8827	-109.075	9.76556	-8.14342	-113.96	9.18878	-30.0781	-103.01	59.8357	-7.61955	-94.8189	59.7348	-35.3245	-95.7658	37.9568	-51.0117	-124.972	72.7046	-24.5914	-115.006	62.0685	-48.6218	-122.975	31.816	-50.9301	-141.373	74.543	-22.4853	-134.008	66.9211	-48.7853	-133.455	39.3255	-55.2266	-170.061	69.3148	-17.565	-164.339	75.5395	-40.2314	-162.214	74.9337	-59.9108	-161.656	64.7516	15.3385	-172.637	58.8091	42.274	-140.559	55.3321	36.496	
27	0.225	-130.471	24.1161	40.992	-111.795	8.28035	20.068	-103.17	9.85041	-6.97247	-106.871	8.63313	-30.7973	-106.625	62.1423	-4.49203	-90.1248	59.3028	-31.2079	-97.1082	39.2189	-47.701	-119.932	72.0678	-20.0439	-117.172	61.9016	-47.2542	-122.337	28.1418	-40.6533	-144.523	74.3041	-18.8221	-134.308	65.8872	-46.3092	-134.402	42.3665	-52.144	-170.294	69.5074	-14.2413	-163.641	75.3925	-32.8982	-158.142	71.019	-56.3324	-158.466	60.7132	21.524	-172.389	54.7464	43.5292	-140.951	55.2736	37.2681	
28	0.233333	-124.91	23.1027	42.8785	-113.507	11.7068	21.7151	-104.069	12.0809	-2.39344	-105.159	12.8143	-24.8022	-102.309	65.3438	-1.38836	-91.4451	64.2884	-25.9814	-96.3063	37.8373	-44.6754	-118.601	71.5703	-12.4853	-111.689	61.0983	-42.4494	-122.392	34.2884	-39.0665	-138.828	75.0302	-17.7095	-128.352	65.6341	-41.5974	-129.65	40.7806	-44.8448	-163.543	70.4614	-11.0666	-160.277	75.462	-35.6163	-151.566	65.2022	-54.9678	-158.886	65.203	21.7482	-169.764	53.8275	48.451	-140.603	55.1799	44.1267	
29	0.241667	-126.516	23.1914	45.7762	-111.622	16.0661	20.198	-98.6596	12.8831	-0.616914	-100.601	14.7817	-25.9033	-104.185	67.3616	0.888437	-88.8613	66.089	-24.1491	-88.8089	40.2242	-41.4837	-120.432	75.6412	-14.9552	-111.474	63.173	-41.0945	-118.51	30.4082	-36.4495	-137.731	73.5605	-17.2362	-128.817	62.863	-40.349	-131.739	36.9043	-43.0283	-160.249	68.6409	-13.4434	-154.558	67.9641	-38.839	-143.633	48.0841	-47.901	-156.583	62.0864	27.3209	-167.463	53.4059	46.4179	-139.347	55.4419	46.1617	
30	0.25	-127.409	29.6895	42.4123	-107.599	18.1079	19.5709	-103.703	17.454	-0.557071	-102.249	19.4567	-26.068	-98.206	68.7	-2.05125	-91.0743	66.6767	-24.972	-89.0786	41.6279	-45.9319	-122.074	73.8983	-14.9309	-111.744	63.1841	-43.573	-116.597	33.3458	-45.608	-137.637	72.1481	-22.2614	-130.693	55.4031	-44.4255	-127.054	29.4297	-39.2568	-159.184	63.6129	-21.6479	-151.68	52.0588	-39.3778	-140.617	25.0371	-35.559	-160.578	67.9841	21.6345	-171.21	55.8156	45.0053	-141.791	59.6889	43.4771	
31	0.258333	-127.19	29.9104	45.0497	-107.288	16.7989	21.019	-102.663	18.1718	0.77103	-96.5791	16.4133	-24.0303	-99.6484	65.3518	-6.99024	-87.544	57.953	-26.6141	-84.9382	36.101	-45.2932	-116.02	69.9062	-20.8441	-108.006	55.41	-44.4651	-109.555	25.1847	-50.7636	-139.42	64.9733	-24.8677	-129.237	49.6832	-42.8185	-127.46	21.1241	-41.197	-159.774	57.3689	-22.9044	-150.247	37.4402	-38.6799	-142.675	18.0682	-30.3101	-158.696	68.3634	20.9261	-168.916	56.791	44.8993	-136.743	59.4224	42.5232	
32	0.266667	-125.271	30.2564	44.277	-108.715	17.128	22.9452	-99.1508	14.5759	0.702607	-97.1923	15.9258	-21.604	-97.3165	57.2704	-4.8758	-88.6432	47.3014	-30.1634	-86.9381	27.9684	-48.1436	-116.548	60.2985	-21.8671	-108.079	44.0521	-45.3247	-110.381	13.9668	-51.0296	-133.841	56.6928	-26.2726	-129.745	37.4381	-43.0415	-129.239	10.9736	-40.5406	-157.509	52.1538	-26.1178	-145.88	33.1312	-36.243	-140.929	9.80844	-27.4323	-155.537	69.0547	17.2119	-166.004	59.2469	43.3057	-139.96	60.0741	38.9389	
33	0.275	-120.988	29.3742	46.4622	-104.791	16.6667	22.589	-96.151	15.4987	-2.5185	-93.6669	13.4719	-18.8299	-99.2789	51.6174	-11.7229	-91.2164	40.4704	-33.8795	-88.0068	20.4541	-50.6906	-113.072	49.2767	-25.8097	-110.108	31.1537	-44.2548	-113.474	4.24127	-50.8899	-132.106	47.6655	-29.5386	-130.49	28.3862	-42.0258	-130.53	1.12106	-42.2681	-155.067	49.5682	-30.6568	-146.121	32.1529	-39.3804	-142.761	10.2815	-41.4978	-149.038	67.6427	16.2207	-160.393	63.1127	38.4696	-134.489	62.2733	36.6938	
34	0.283333	-120.873	26.7103	45.3083	-103.476	11.3553	24.2267	-96.0834	11.0885	2.16713	-90.5849	10.7699	-18.5856	-96.1063	42.919	-12.7144	-91.3763	28.6312	-38.2674	-90.0462	15.3512	-52.5664	-112.311	40.1297	-28.5505	-113.692	19.3819	-45.7686	-118.712	-8.36321	-52.923	-133.778	45.2205	-31.3631	-127.669	23.7703	-45.9095	-130.114	-0.239493	-52.1221	-156.021	52.1146	-25.835	-147.657	38.0416	-46.4017	-141.126	19.8474	-55.9729	-145.137	64.4176	15.2424	-158.555	61.0203	40.6859	-131.102	58.4746	34.3576	
35	0.291667	-118.959	19.6593	46.3325	-100.948	9.4214	22.5783	-94.2255	8.17102	3.22625	-87.0629	5.71103	-17.0114	-92.4954	33.0461	-16.1078	-87.7862	16.9511	-38.5951	-89.9163	4.81326	-53.812	-114.432	33.5445	-32.0906	-112.58	12.8478	-46.5783	-116.526	-10.0472	-59.3946	-131.703	43.6083	-33.5194	-126.516	27.119	-52.5836	-125.805	10.3939	-63.9174	-152.195	55.1581	-29.8816	-147.855	49.536	-49.2364	-147.123	43.1742	-64.8806	-141.614	62.1945	11.741	-153.335	60.6274	37.6947	-127.336	51.0568	34.2408	
36	0.3	-117.289	16.5451	45.6612	-100.352	6.73301	24.1561	-91.1773	3.80103	5.73276	-77.804	-2.32885	-12.7837	-96.0873	25.6482	-20.7403	-93.0396	13.6742	-38.8428	-94.657	-2.00292	-57.9983	-111.695	30.8535	-31.906	-109.171	14.8196	-48.7522	-115.059	-1.6474	-69.5802	-130.022	44.7852	-32.599	-125.131	36.2771	-52.0147	-119.639	24.4008	-75.8005	-149.208	54.9039	-28.3237	-146.596	56.4471	-44.9235	-148.154	63.1939	-63.6261	-142.152	57.7955	12.2321	-148.048	58.2487	35.5527	-124.189	46.8532	31.5846	
37	0.308333	-117.044	15.2188	43.444	-98.2553	3.97803	25.5395	-88.8804	-1.589	9.81659	-74.5697	-8.64127	-5.39305	-96.6453	17.4082	-25.4593	-94.0271	4.70446	-42.5357	-93.6973	-11.4914	-59.0315	-113.893	31.5361	-32.7982	-109.499	20.1565	-54.3651	-109.662	10.4512	-77.2143	-131.705	44.7322	-32.6609	-122.147	40.3616	-55.1488	-120.463	41.1831	-77.9777	-153.603	52.3576	-21.5774	-152.607	56.9898	-39.795	-147.23	66.3652	-51.9545	-138.196	51.3502	14.8779	-149.405	56.7142	35.133	-118.693	41.9456	30.3003	
38	0.316667	-118.302	12.8912	44.4513	-98.5861	-4.58018	31.1544	-86.4254	-11.0095	13.0995	-79.459	-17.8843	-0.695046	-97.7219	13.7856	-20.1785	-92.0883	-1.9911	-40.417	-94.1656	-13.1814	-60.2814	-110.378	28.3625	-30.6111	-107.682	23.9121	-54.9314	-104.027	21.0802	-81.4212	-129.876	39.8011	-31.2932	-125.418	40.8453	-51.4156	-121.409	43.2496	-71.2229	-154.418	46.0826	-23.443	-157.037	51.9378	-37.4985	-155.422	66.213	-52.482	-142.454	46.6805	13.1951	-145.169	49.6991	36.7114	-118.856	38.4769	31.5034	
